<svg width="37" height="36" viewBox="0 0 37 36" fill="none" xmlns="http://www.w3.org/2000/svg">
<mask id="mask0_367_551" style="mask-type:alpha" maskUnits="userSpaceOnUse" x="0" y="0" width="37" height="36">
<ellipse cx="18.5" cy="18" rx="18.5" ry="18" fill="#C4C4C4"/>
</mask>
<g mask="url(#mask0_367_551)">
<path d="M31.61 28.5209C30.0031 26.7801 28.0532 25.3909 25.8829 24.4407C23.7127 23.4905 21.3692 23 19 23C16.6308 23 14.2873 23.4905 12.1171 24.4407C9.94681 25.3909 7.99685 26.7801 6.39 28.5209C6.14192 28.7952 6.00314 29.151 6 29.5208V35.5202C6.00526 35.9145 6.16561 36.2908 6.44635 36.5678C6.72709 36.8448 7.10562 37 7.5 37H30.5C30.8978 37 31.2794 36.842 31.5607 36.5607C31.842 36.2794 32 35.8979 32 35.5002V29.5008C31.992 29.1379 31.8536 28.7901 31.61 28.5209Z" fill="#182F43"/>
<path d="M19 21C22.866 21 26 17.866 26 14C26 10.134 22.866 7 19 7C15.134 7 12 10.134 12 14C12 17.866 15.134 21 19 21Z" fill="#182F43"/>
</g>
</svg>
