<svg width="24" height="24" viewBox="0 0 24 24" fill="none" xmlns="http://www.w3.org/2000/svg">
<path fill-rule="evenodd" clip-rule="evenodd" d="M18.2229 0.533659C18.7676 0.178982 19.406 -0.00670293 20.0571 0.000184905C20.9222 0.00933652 21.7487 0.357483 22.3572 0.969017C22.9656 1.58055 23.3069 2.40609 23.3068 3.26634C23.3068 3.9138 23.1132 4.54664 22.7507 5.08448C22.3882 5.62232 21.8732 6.04091 21.271 6.28706C20.6687 6.53321 20.0065 6.59583 19.3684 6.46696C18.7303 6.3381 18.1452 6.02355 17.6872 5.56329C17.2293 5.10303 16.9192 4.51782 16.7965 3.88197C16.6737 3.24613 16.7437 2.58835 16.9977 1.99217C17.2517 1.396 17.6782 0.888336 18.2229 0.533659ZM19.4018 4.71847C19.6147 4.77922 19.8382 4.79354 20.0571 4.76044C20.4207 4.70547 20.7524 4.52276 20.992 4.24546C21.2317 3.96815 21.3635 3.61462 21.3635 3.24897C21.3635 2.88332 21.2317 2.52979 20.992 2.25248C20.7524 1.97518 20.4207 1.79247 20.0571 1.7375C19.8382 1.7044 19.6147 1.71872 19.4018 1.77947C19.189 1.84023 18.9918 1.94598 18.8239 2.0895C18.6559 2.23303 18.5211 2.41093 18.4287 2.61105C18.3363 2.81117 18.2885 3.02877 18.2885 3.24897C18.2885 3.46917 18.3363 3.68677 18.4287 3.88688C18.5211 4.087 18.6559 4.26491 18.8239 4.40844C18.9918 4.55196 19.189 4.65772 19.4018 4.71847ZM21.0356 7.78355C20.8039 7.78355 20.5817 7.87508 20.4179 8.03798C20.2541 8.20089 20.162 8.42183 20.162 8.65221V17.4778C20.1529 18.5163 19.734 19.5097 18.9954 20.2441C18.2569 20.9785 17.2579 21.395 16.2135 21.4041H5.6957C4.64848 21.4041 3.64414 20.9904 2.90364 20.2541C2.16315 19.5178 1.74714 18.5191 1.74714 17.4778V7.01913C1.74248 6.50223 1.84144 5.98958 2.03822 5.51112C2.235 5.03266 2.52567 4.59798 2.89325 4.23246C3.26084 3.86693 3.69798 3.57789 4.17915 3.38222C4.66031 3.18654 5.17587 3.08815 5.6957 3.09279H14.3965C14.6282 3.09279 14.8503 3.00127 15.0142 2.83836C15.178 2.67545 15.27 2.45451 15.27 2.22413C15.27 1.99374 15.178 1.7728 15.0142 1.60989C14.8503 1.44699 14.6282 1.35547 14.3965 1.35547H5.6957C4.18511 1.35547 2.73638 1.95218 1.66823 3.01432C0.600083 4.07646 0 5.51704 0 7.01913V17.4778C0 18.9799 0.600083 20.4205 1.66823 21.4826C2.73638 22.5447 4.18511 23.1414 5.6957 23.1414H16.2135C17.7241 23.1414 19.1728 22.5447 20.2409 21.4826C21.3091 20.4205 21.9092 18.9799 21.9092 17.4778V8.65221C21.9092 8.42183 21.8171 8.20089 21.6533 8.03798C21.4895 7.87508 21.2673 7.78355 21.0356 7.78355ZM10.0986 10.042C9.90414 9.90619 9.67225 9.83337 9.43463 9.83356C9.18705 9.86221 8.96095 9.98713 8.80569 10.181L5.10171 14.9413C5.02634 15.0284 4.96992 15.1301 4.93596 15.24C4.90199 15.3498 4.89122 15.4655 4.90435 15.5797C4.91747 15.6939 4.9542 15.8042 5.01222 15.9036C5.07024 16.003 5.14829 16.0894 5.24149 16.1574C5.39007 16.2751 5.57576 16.3366 5.76563 16.3311C5.89836 16.3353 6.03031 16.3092 6.1514 16.255C6.2725 16.2008 6.37957 16.1199 6.46449 16.0184L9.64428 11.9531L12.4397 14.3853C12.6186 14.5255 12.841 14.5992 13.0687 14.5938C13.2976 14.5626 13.508 14.4518 13.6627 14.2811L17.4016 9.97255C17.5506 9.79119 17.6229 9.55941 17.6033 9.32606C17.5838 9.09271 17.4739 8.87601 17.2968 8.72167C17.2114 8.64484 17.111 8.58633 17.0019 8.54976C16.8927 8.5132 16.7772 8.49937 16.6624 8.50915C16.5477 8.51893 16.4362 8.5521 16.3349 8.6066C16.2337 8.6611 16.1448 8.73576 16.0738 8.82593L12.894 12.4743L10.0986 10.042Z" fill="#352E6C"/>
</svg>
