<svg width="24" height="24" viewBox="0 0 24 24" fill="none" xmlns="http://www.w3.org/2000/svg">
<path fill-rule="evenodd" clip-rule="evenodd" d="M6.85906 14.4197C7.01454 14.2529 7.09798 14.032 7.09144 13.8046C7.08491 13.5772 6.98894 13.3614 6.82413 13.2036C6.7457 13.1205 6.65098 13.0543 6.5458 13.009C6.44063 12.9637 6.32723 12.9404 6.21263 12.9404C6.09802 12.9404 5.98462 12.9637 5.87945 13.009C5.77428 13.0543 5.67956 13.1205 5.60113 13.2036L4.37813 14.4545V5.52468C4.37813 5.02732 4.47664 4.53482 4.66805 4.07532C4.85946 3.61581 5.14 3.19829 5.49368 2.84661C5.84736 2.49492 6.26725 2.21594 6.72935 2.02561C7.19145 1.83528 7.68673 1.73732 8.18691 1.73732H15.6996C15.9285 1.72872 16.1457 1.63445 16.3077 1.47337C16.4697 1.31229 16.5645 1.0963 16.5732 0.868659C16.5732 0.638276 16.4811 0.417331 16.3173 0.254426C16.1535 0.0915211 15.9313 0 15.6996 0H8.18691C7.45729 0 6.73481 0.142904 6.06073 0.420544C5.38666 0.698185 4.77418 1.10513 4.25827 1.61814C3.74235 2.13115 3.33312 2.74019 3.05391 3.41047C2.7747 4.08076 2.63099 4.79917 2.63099 5.52468V14.246L1.54777 13.0299C1.47357 12.9387 1.38154 12.8634 1.27729 12.8085C1.17304 12.7537 1.05872 12.7203 0.941171 12.7106C0.823624 12.7009 0.70531 12.7149 0.593364 12.7518C0.481418 12.7888 0.378136 12.8479 0.289789 12.9256C0.117775 13.0847 0.0144301 13.3039 0.00140004 13.5371C-0.01163 13.7703 0.0666849 13.9995 0.219921 14.1765L2.84063 17.13H2.87557L2.94548 17.1994L3.01535 17.2689H3.85398L3.99376 17.1994L4.1335 17.0952L6.85906 14.4197ZM23.0376 8.92982L20.4168 5.97639C20.3983 5.97639 20.3805 5.96906 20.3674 5.95603C20.3543 5.94299 20.3469 5.92532 20.3469 5.90689H20.2771L20.1722 5.8374H19.4384L19.2987 5.90689C19.2366 5.93474 19.1869 5.98417 19.1589 6.04588L16.4334 8.75609C16.3488 8.83712 16.2815 8.93428 16.2356 9.04174C16.1897 9.1492 16.166 9.26476 16.166 9.38152C16.166 9.49829 16.1897 9.61386 16.2356 9.72132C16.2815 9.82878 16.3488 9.92593 16.4334 10.007C16.6006 10.1583 16.8187 10.2422 17.0449 10.2422C17.271 10.2422 17.4891 10.1583 17.6564 10.007L18.8794 8.75609V17.6859C18.8794 18.6904 18.4781 19.6537 17.7638 20.364C17.0495 21.0742 16.0807 21.4733 15.0706 21.4733H7.59281C7.36112 21.4733 7.13895 21.5648 6.97512 21.7277C6.8113 21.8906 6.71924 22.1115 6.71924 22.3419C6.71924 22.5723 6.8113 22.7932 6.97512 22.9561C7.13895 23.1191 7.36112 23.2106 7.59281 23.2106H15.0706C16.5441 23.2106 17.9573 22.6285 18.9992 21.5924C20.0412 20.5564 20.6265 19.1511 20.6265 17.6859V8.82559L21.7446 10.0765C21.8276 10.1689 21.9302 10.2419 22.0451 10.2899C22.1599 10.338 22.2841 10.3601 22.4086 10.3544C22.6127 10.347 22.8089 10.2738 22.9676 10.1459C23.1374 9.99286 23.2398 9.77959 23.2529 9.55211C23.266 9.32462 23.1886 9.10114 23.0376 8.92982ZM11.9494 18.4392C11.7856 18.6022 11.5634 18.6937 11.3317 18.6937C11.1001 18.6937 10.8778 18.6022 10.714 18.4392C10.5502 18.2763 10.4582 18.0554 10.4582 17.825V16.2267C9.88863 16.181 9.33791 16.0025 8.85078 15.7055C8.66237 15.5721 8.52985 15.3745 8.47831 15.1503C8.42678 14.9261 8.45985 14.6909 8.57126 14.4894C8.7054 14.3013 8.90675 14.1713 9.13413 14.1261C9.36151 14.0809 9.59769 14.1238 9.79426 14.2461C10.1546 14.452 10.5675 14.5486 10.9823 14.5241C11.4081 14.5475 11.832 14.4511 12.2053 14.2461C12.2993 14.1885 12.3752 14.1059 12.4246 14.0077C12.4739 13.9095 12.4948 13.7995 12.4848 13.6902C12.4863 13.6176 12.4713 13.5455 12.4411 13.4794C12.4108 13.4132 12.3661 13.3547 12.3101 13.308C12.094 13.055 11.8336 12.8431 11.5414 12.6826L10.3883 11.9876C9.94999 11.7181 9.56025 11.3776 9.23518 10.98C8.83435 10.5426 8.61031 9.97335 8.60619 9.38165C8.6116 8.98787 8.70913 8.60075 8.89108 8.25096C9.07304 7.90116 9.33441 7.5983 9.65448 7.36636C9.90323 7.1936 10.1734 7.05346 10.4582 6.9494V5.24683C10.4582 5.01645 10.5502 4.79551 10.714 4.6326C10.8778 4.4697 11.1001 4.37817 11.3317 4.37817C11.5634 4.37817 11.7856 4.4697 11.9494 4.6326C12.1133 4.79551 12.2053 5.01645 12.2053 5.24683V6.70618C12.6361 6.70945 13.0626 6.79191 13.4633 6.9494C13.6792 7.02108 13.8585 7.17379 13.963 7.37498C14.0674 7.57618 14.0887 7.80996 14.0223 8.02654C13.9429 8.24392 13.7827 8.42274 13.5747 8.52617C13.3667 8.62959 13.1267 8.64975 12.9042 8.58249C12.6005 8.48066 12.281 8.43359 11.9607 8.4435C11.5195 8.42192 11.0818 8.53073 10.7028 8.75622C10.5954 8.82186 10.5069 8.91388 10.4457 9.02342C10.3845 9.13296 10.3527 9.25634 10.3533 9.38165C10.3627 9.56345 10.4371 9.73595 10.563 9.8681C10.7791 10.1211 11.0396 10.333 11.3317 10.4935L12.4499 11.1885C12.8908 11.4545 13.2909 11.7821 13.638 12.1614C14.0158 12.5825 14.2269 13.1258 14.232 13.6902C14.2398 14.0729 14.1511 14.4514 13.9741 14.7912C13.7971 15.1311 13.5374 15.4215 13.2186 15.636C12.9142 15.8594 12.5706 16.0244 12.2053 16.1224V17.825C12.2053 18.0554 12.1133 18.2763 11.9494 18.4392Z" fill="#352E6C"/>
</svg>
