<svg width="25" height="24" viewBox="0 0 25 24" fill="none" xmlns="http://www.w3.org/2000/svg">
<path fill-rule="evenodd" clip-rule="evenodd" d="M10.0502 12.8572H2.29289C2.12307 12.8597 1.95458 12.827 1.79816 12.7612C1.64174 12.6954 1.50083 12.598 1.38438 12.475C1.14435 12.2341 1.0067 11.9107 1 11.5716V1.28669C1.00134 0.936318 1.13911 0.600088 1.38438 0.348542C1.63207 0.12254 1.95674 -0.00163241 2.29289 0.00107848H10.0502C10.2175 -0.00593084 10.3845 0.0212836 10.5407 0.0810519C10.697 0.14082 10.8393 0.231869 10.9587 0.348542C11.201 0.60204 11.3382 0.937022 11.3431 1.28669V11.5716C11.3342 11.9098 11.1952 12.2317 10.9546 12.4709C10.714 12.7102 10.3903 12.8484 10.0502 12.8572ZM9.59593 1.7384H2.74714V11.1199H9.59593V1.7384ZM22.944 9.0003H15.2216C14.8693 8.99897 14.5311 8.86199 14.2782 8.61809C14.1562 8.50103 14.0593 8.36066 13.9932 8.20541C13.9272 8.05017 13.8934 7.88325 13.8938 7.71468V1.28661C13.8987 0.936945 14.0359 0.601962 14.2782 0.348465C14.5346 0.114069 14.8735 -0.0107199 15.2216 0.00100107H22.944C23.2964 0.00233099 23.6345 0.139307 23.8874 0.383202C24.0111 0.498992 24.1091 0.63912 24.1753 0.794659C24.2415 0.950199 24.2743 1.11774 24.2718 1.28661V7.71468C24.2723 7.88325 24.2385 8.05017 24.1724 8.20541C24.1064 8.36066 24.0094 8.50103 23.8874 8.61809C23.6345 8.86199 23.2964 8.99897 22.944 9.0003ZM22.5247 1.73832H15.6409V7.26299H22.5247V1.73832ZM14.2782 22.7599C14.5311 23.0038 14.8693 23.1408 15.2216 23.1421H22.944C23.2962 23.1421 23.6339 23.003 23.8829 22.7554C24.1319 22.5078 24.2718 22.172 24.2718 21.8218V12.8572C24.2718 12.5071 24.1319 12.1712 23.8829 11.9236C23.6339 11.676 23.2962 11.5369 22.944 11.5369H15.2216C14.8695 11.5369 14.5317 11.676 14.2827 11.9236C14.0337 12.1712 13.8938 12.5071 13.8938 12.8572V21.8218C13.8951 22.1722 14.0329 22.5084 14.2782 22.7599ZM15.6409 13.2742H22.5247V21.4048H15.6409V13.2742ZM10.0501 23.1421H2.29278C2.12326 23.1426 1.95541 23.109 1.79929 23.0433C1.64317 22.9776 1.502 22.8812 1.38428 22.7599C1.25616 22.6402 1.1555 22.4944 1.08917 22.3325C1.02284 22.1706 0.992388 21.9964 0.999895 21.8218V16.6793C1.0066 16.3403 1.14424 16.0168 1.38428 15.7759C1.50072 15.653 1.64163 15.5555 1.79805 15.4897C1.95447 15.4239 2.12296 15.3912 2.29278 15.3937H10.0501C10.3902 15.4025 10.7139 15.5408 10.9545 15.78C11.1951 16.0192 11.3341 16.3411 11.343 16.6793V21.8218C11.3416 22.1721 11.2039 22.5084 10.9586 22.7599C10.8409 22.8812 10.6997 22.9776 10.5436 23.0433C10.3875 23.109 10.2196 23.1426 10.0501 23.1421ZM9.59582 17.131H2.74704V21.4048H9.59582V17.131Z" fill="#352E6C"/>
</svg>
