<svg width="14" height="14" viewBox="0 0 14 14" fill="none" xmlns="http://www.w3.org/2000/svg">
<path d="M1.79535 4.15635C1.94886 3.98496 2.15704 3.88867 2.37411 3.88867C2.59118 3.88867 2.79936 3.98496 2.95288 4.15635L7.00505 8.68187L11.0572 4.15635C11.2116 3.98981 11.4184 3.89766 11.633 3.89975C11.8477 3.90183 12.053 3.99798 12.2048 4.16749C12.3566 4.337 12.4427 4.5663 12.4445 4.80601C12.4464 5.04573 12.3639 5.27667 12.2148 5.4491L7.58382 10.621C7.4303 10.7924 7.22212 10.8887 7.00505 10.8887C6.78798 10.8887 6.5798 10.7924 6.42629 10.621L1.79535 5.4491C1.64188 5.27765 1.55566 5.04515 1.55566 4.80272C1.55566 4.5603 1.64188 4.3278 1.79535 4.15635Z" fill="#352E6C"/>
</svg>
